<?xml version="1.0" encoding="UTF-8"?>
<svg id="Layer_2" data-name="Layer 2" xmlns="http://www.w3.org/2000/svg" viewBox="0 0 64.4 64.4">
  <defs>
    <style>
      .cls-1 {
        fill: #fff;
      }

      .cls-2 {
        fill: #da0819;
      }
    </style>
  </defs>
  <g id="Layer_1-2" data-name="Layer 1">
    <g>
      <circle class="cls-2" cx="32.2" cy="32.2" r="32.2"/>
      <g>
        <path class="cls-1" d="M45.35,42.95c1.79-1.92,2.77-4.3,2.77-6.77,0-3.1-1.53-5.9-3.98-7.89-.06,7.09-6.73,12.86-14.92,12.86h-5.55c2.15,3.54,6.5,5.97,11.51,5.97h11.94c.4,0,.76-.24,.92-.62s.07-.8-.22-1.08l-2.47-2.47Z"/>
        <path class="cls-1" d="M29.21,17.28c-7.13,0-12.93,4.91-12.93,10.94,0,2.48,.97,4.84,2.76,6.77l-2.48,2.47c-.28,.29-.37,.72-.21,1.08,.15,.38,.51,.62,.91,.62h11.94c7.13,0,12.94-4.9,12.94-10.94s-5.8-10.94-12.94-10.94Zm1.99,13.93h-7.96c-.55,0-1-.45-1-.99s.45-1,1-1h7.96c.54,0,.99,.45,.99,1s-.45,.99-.99,.99Zm3.97-3.98h-11.93c-.55,0-1-.45-1-.99s.45-1,1-1h11.93c.55,0,1,.45,1,1s-.45,.99-1,.99Z"/>
      </g>
    </g>
  </g>
</svg>