<?xml version="1.0" encoding="UTF-8"?>
<svg id="Layer_2" data-name="Layer 2" xmlns="http://www.w3.org/2000/svg" viewBox="0 0 85.42 85.42">
  <defs>
    <style>
      .cls-1 {
        fill: #fff;
      }

      .cls-2 {
        fill: #da0819;
      }
    </style>
  </defs>
  <g id="Layer_1-2" data-name="Layer 1">
    <g>
      <circle class="cls-2" cx="42.71" cy="42.71" r="42.71"/>
      <g>
        <path class="cls-1" d="M61.78,26.45c-.08-1.52-1.29-2.73-2.81-2.81-3.06-.17-9.06,0-14.79,2.96-2.92,1.51-6.01,4.07-8.48,7.03-.03,.04-.06,.07-.09,.11l-5.6,.43c-.92,.07-1.74,.55-2.25,1.32l-3.82,5.78c-.39,.58-.45,1.32-.16,1.96,.28,.64,.87,1.09,1.56,1.19l4.72,.73c-.02,.09-.03,.18-.05,.27-.16,.94,.15,1.9,.83,2.58l6.57,6.57c.56,.56,1.32,.87,2.1,.87,.16,0,.32-.01,.48-.04,.09-.02,.18-.03,.27-.05l.73,4.72c.11,.69,.55,1.28,1.19,1.56,.27,.12,.55,.18,.83,.18,.39,0,.79-.11,1.13-.34l5.78-3.82c.77-.51,1.25-1.33,1.32-2.25l.43-5.6s.07-.06,.11-.09c2.96-2.47,5.52-5.56,7.03-8.48,2.97-5.73,3.13-11.73,2.96-14.79h0Zm-13.09,29.34l-5.53,3.65-.71-4.6c2.34-.69,4.65-1.79,6.85-3.26l-.28,3.65c-.02,.23-.14,.43-.33,.56h0Zm-9.7-2.79l-6.57-6.57c-.17-.17-.25-.4-.21-.63,.2-1.17,.5-2.28,.87-3.33l9.86,9.86c-1.26,.45-2.38,.72-3.32,.88-.23,.04-.46-.04-.63-.21h0Zm-8.8-16.59l3.65-.28c-1.47,2.2-2.57,4.51-3.26,6.85l-4.6-.71,3.65-5.53c.13-.19,.33-.31,.56-.33Zm20.17,11.59c-1.81,1.51-3.57,2.6-5.18,3.39l-11.14-11.14c1.03-2.11,2.3-3.87,3.39-5.18,2.28-2.74,5.12-5.1,7.79-6.48,5.26-2.72,10.8-2.87,13.64-2.71,.38,.02,.67,.32,.69,.69,.15,2.84,0,8.38-2.71,13.64-1.38,2.67-3.74,5.51-6.48,7.79h0Z"/>
        <path class="cls-1" d="M49.78,41.24c1.43,0,2.87-.55,3.96-1.64,1.06-1.06,1.64-2.46,1.64-3.96s-.58-2.9-1.64-3.96c-2.18-2.18-5.74-2.18-7.92,0-1.06,1.06-1.64,2.46-1.64,3.96s.58,2.9,1.64,3.96c1.09,1.09,2.53,1.64,3.96,1.64h0Zm-2.38-7.97c.65-.65,1.52-.98,2.38-.98s1.72,.33,2.38,.98c.63,.63,.98,1.48,.98,2.38s-.35,1.74-.98,2.38c-1.31,1.31-3.44,1.31-4.75,0-.63-.63-.98-1.48-.98-2.38s.35-1.74,.98-2.38Z"/>
        <path class="cls-1" d="M24.74,55.1c.29,0,.57-.11,.79-.33l3.66-3.66c.44-.44,.44-1.15,0-1.58-.44-.44-1.15-.44-1.58,0l-3.66,3.66c-.44,.44-.44,1.15,0,1.58,.22,.22,.51,.33,.79,.33Z"/>
        <path class="cls-1" d="M32.54,52.88c-.44-.44-1.15-.44-1.58,0l-7.03,7.03c-.44,.44-.44,1.15,0,1.58,.22,.22,.51,.33,.79,.33s.57-.11,.79-.33l7.03-7.03c.44-.44,.44-1.15,0-1.58h0Z"/>
        <path class="cls-1" d="M34.31,56.23l-3.66,3.66c-.44,.44-.44,1.15,0,1.58,.22,.22,.51,.33,.79,.33s.57-.11,.79-.33l3.66-3.66c.44-.44,.44-1.15,0-1.58-.44-.44-1.15-.44-1.58,0Z"/>
      </g>
    </g>
  </g>
</svg>