<?xml version="1.0" encoding="UTF-8"?>
<svg id="Layer_2" data-name="Layer 2" xmlns="http://www.w3.org/2000/svg" viewBox="0 0 64.4 64.4">
  <defs>
    <style>
      .cls-1 {
        fill: #fff;
      }

      .cls-2 {
        fill: #da0819;
      }
    </style>
  </defs>
  <g id="Layer_1-2" data-name="Layer 1">
    <g>
      <circle class="cls-1" cx="32.2" cy="32.2" r="32.2"/>
      <g>
        <path class="cls-2" d="M40.51,37.62l-13.72-13.72c-.6-.6-1.57-.6-2.17,0l-.72,.72c-.6,.6-.6,1.57,0,2.17l13.72,13.72c.6,.6,1.57,.6,2.17,0l.72-.72c.6-.6,.6-1.57,0-2.17Z"/>
        <path class="cls-2" d="M37.62,23.89l-13.72,13.72c-.6,.6-.6,1.57,0,2.17l.72,.72c.6,.6,1.57,.6,2.17,0l13.72-13.72c.6-.6,.6-1.57,0-2.17l-.72-.72c-.6-.6-1.57-.6-2.17,0Z"/>
      </g>
    </g>
  </g>
</svg>